<svg xmlns="http://www.w3.org/2000/svg">
<symbol id="frontend" width="1em" height="1em" viewBox="0 0 37 37" fill="none" >
<path fill-rule="evenodd" clip-rule="evenodd" d="M11.2249 9.58749C11.3325 9.6949 11.418 9.82249 11.4763 9.96296C11.5346 10.1034 11.5646 10.254 11.5646 10.4061C11.5646 10.5582 11.5346 10.7088 11.4763 10.8493C11.418 10.9897 11.3325 11.1173 11.2249 11.2247L3.94743 18.4999L11.2249 25.775C11.442 25.9921 11.564 26.2866 11.564 26.5936C11.564 26.9007 11.442 27.1951 11.2249 27.4122C11.0078 27.6294 10.7133 27.7513 10.4062 27.7513C10.0992 27.7513 9.80473 27.6294 9.58762 27.4122L1.49387 19.3185C1.38619 19.2111 1.30076 19.0835 1.24247 18.943C1.18418 18.8025 1.15417 18.652 1.15417 18.4999C1.15417 18.3478 1.18418 18.1972 1.24247 18.0567C1.30076 17.9162 1.38619 17.7886 1.49387 17.6812L9.58762 9.58749C9.69502 9.47982 9.82262 9.39438 9.96309 9.33609C10.1036 9.2778 10.2542 9.2478 10.4062 9.2478C10.5583 9.2478 10.7089 9.2778 10.8494 9.33609C10.9899 9.39438 11.1175 9.47982 11.2249 9.58749ZM25.7751 9.58749C25.6674 9.6949 25.582 9.82249 25.5237 9.96296C25.4654 10.1034 25.4354 10.254 25.4354 10.4061C25.4354 10.5582 25.4654 10.7088 25.5237 10.8493C25.582 10.9897 25.6674 11.1173 25.7751 11.2247L33.0526 18.4999L25.7751 25.775C25.6676 25.8825 25.5823 26.0101 25.5242 26.1506C25.466 26.291 25.436 26.4416 25.436 26.5936C25.436 26.7456 25.466 26.8962 25.5242 27.0367C25.5823 27.1771 25.6676 27.3047 25.7751 27.4122C25.8826 27.5197 26.0102 27.605 26.1507 27.6632C26.2912 27.7214 26.4417 27.7513 26.5937 27.7513C26.7458 27.7513 26.8963 27.7214 27.0368 27.6632C27.1772 27.605 27.3049 27.5197 27.4124 27.4122L35.5061 19.3185C35.6138 19.2111 35.6992 19.0835 35.7575 18.943C35.8158 18.8025 35.8458 18.652 35.8458 18.4999C35.8458 18.3478 35.8158 18.1972 35.7575 18.0567C35.6992 17.9162 35.6138 17.7886 35.5061 17.6812L27.4124 9.58749C27.305 9.47982 27.1774 9.39438 27.0369 9.33609C26.8964 9.2778 26.7458 9.2478 26.5937 9.2478C26.4417 9.2478 26.2911 9.2778 26.1506 9.33609C26.0101 9.39438 25.8825 9.47982 25.7751 9.58749ZM23.4649 2.36324C23.7577 2.45383 24.0025 2.65695 24.1456 2.92796C24.2887 3.19897 24.3184 3.5157 24.2281 3.80855L14.9781 33.8711C14.879 34.153 14.6747 34.3856 14.4079 34.5201C14.1411 34.6547 13.8326 34.6808 13.547 34.5928C13.2614 34.5049 13.021 34.3099 12.876 34.0486C12.7311 33.7872 12.693 33.48 12.7696 33.1912L22.0196 3.12868C22.1102 2.83591 22.3133 2.59108 22.5843 2.44798C22.8553 2.30489 23.1721 2.27524 23.4649 2.36556V2.36324Z" fill="#478BF2"/>
</symbol>
<symbol id="backend" width="1em" height="1em" viewBox="0 0 37 37" fill="none" >
<path d="M18.6445 24.3174C18.6445 24.4764 18.7674 24.6064 18.9155 24.6064H25.6001C25.7482 24.6064 25.8711 24.4764 25.8711 24.3174V22.583C25.8711 22.424 25.7482 22.2939 25.6001 22.2939H18.9155C18.7674 22.2939 18.6445 22.424 18.6445 22.583V24.3174ZM11.6022 24.5378L18.5397 18.7204C18.677 18.6048 18.677 18.3916 18.5397 18.276L11.6022 12.4622C11.5604 12.4266 11.5091 12.4037 11.4547 12.3964C11.4002 12.389 11.3447 12.3974 11.2949 12.4206C11.2451 12.4438 11.2029 12.4809 11.1735 12.5273C11.1441 12.5737 11.1286 12.6276 11.1289 12.6826V14.9481C11.1289 15.0349 11.165 15.1144 11.2337 15.1686L15.2011 18.5L11.2337 21.8314C11.2014 21.8585 11.1753 21.8922 11.1572 21.9302C11.1391 21.9682 11.1295 22.0097 11.1289 22.0519V24.3174C11.1289 24.5631 11.4144 24.6968 11.6022 24.5378ZM31.7969 4.04688H5.20312C4.56357 4.04688 4.04688 4.56357 4.04688 5.20312V31.7969C4.04688 32.4364 4.56357 32.9531 5.20312 32.9531H31.7969C32.4364 32.9531 32.9531 32.4364 32.9531 31.7969V5.20312C32.9531 4.56357 32.4364 4.04688 31.7969 4.04688ZM30.3516 30.3516H6.64844V6.64844H30.3516V30.3516Z" fill="#478BF2"/>
</symbol>
<symbol id="tool" width="1em" height="1em" viewBox="0 0 37 37" fill="none" >
<path d="M35.8495 26.4054L28.1287 18.6846L35.8483 10.9651C36.0748 10.7388 36.2546 10.4701 36.3772 10.1743C36.4999 9.87859 36.5631 9.56157 36.5632 9.24139C36.5633 8.92121 36.5003 8.60414 36.3779 8.30831C36.2554 8.01247 36.0759 7.74365 35.8495 7.51722L35.8483 7.51478L31.4852 3.15165C31.2589 2.92513 30.9902 2.7454 30.6945 2.62274C30.3987 2.50007 30.0817 2.43688 29.7615 2.43677C29.4413 2.43665 29.1243 2.49962 28.8284 2.62208C28.5326 2.74453 28.2638 2.92407 28.0373 3.15043L28.0361 3.15165L20.3166 10.8712L12.5958 3.15043C12.1381 2.69466 11.5184 2.43878 10.8725 2.43878C10.2265 2.43878 9.60689 2.69466 9.14916 3.15043L3.15047 9.1479C2.69344 9.60521 2.4367 10.2253 2.4367 10.8718C2.4367 11.5184 2.69344 12.1384 3.15047 12.5957L10.87 20.3153L2.4375 28.7503V36.5625H10.2497L18.6834 28.1287L26.4042 35.8519C26.8627 36.3073 27.4826 36.5628 28.1287 36.5628C28.7749 36.5628 29.3948 36.3073 29.8533 35.8519L35.8495 29.8532C36.3066 29.3959 36.5633 28.7759 36.5633 28.1293C36.5633 27.4828 36.3066 26.8627 35.8495 26.4054ZM29.7533 4.87009L34.1287 9.2454L26.4103 16.965L22.035 12.5897L29.7533 4.87009ZM9.75 34.125H4.875V29.7484L12.5897 22.035L17.0698 26.5175L9.75 34.125ZM28.1287 34.1298L4.875 10.8712L10.8737 4.87497L15.4903 9.49037L12.7457 12.2362L14.4702 13.9595L17.2136 11.2149L22.2471 16.2483L19.5 18.9905L21.2257 20.7138L23.9704 17.9692L29.0038 23.0027L26.2592 25.7461L27.9825 27.4706L30.7271 24.7272L34.1274 28.1287L28.1287 34.1298Z" fill="#478BF2"/>
</symbol>
<symbol id="times-circle" width="1em" height="1em" viewBox="0 0 39 39" fill="none" >
<path d="M19.5 3.65625C10.764 3.65625 3.65625 10.764 3.65625 19.5C3.65625 28.236 10.764 35.3438 19.5 35.3438C28.236 35.3438 35.3438 28.236 35.3438 19.5C35.3438 10.764 28.236 3.65625 19.5 3.65625ZM19.5 6.09375C26.9173 6.09375 32.9062 12.0827 32.9062 19.5C32.9062 26.9173 26.9173 32.9062 19.5 32.9062C12.0827 32.9062 6.09375 26.9173 6.09375 19.5C6.09375 12.0827 12.0827 6.09375 19.5 6.09375ZM14.8919 13.1393L13.1381 14.8931L17.7474 19.5L13.1406 24.1081L14.8919 25.8607L19.5 21.2513L24.1081 25.8607L25.8607 24.1081L21.2513 19.5L25.8607 14.8919L24.1081 13.1393L19.5 17.7474L14.8919 13.1393Z" fill="white"/>
</symbol>
</svg>
